<mxfile host="65bd71144e">
    <diagram id="qw97ysM-djNeax4VIUBU" name="Page-1">
        <mxGraphModel dx="1029" dy="474" grid="1" gridSize="10" guides="1" tooltips="1" connect="1" arrows="1" fold="1" page="1" pageScale="1" pageWidth="850" pageHeight="1100" math="0" shadow="0">
            <root>
                <mxCell id="0"/>
                <mxCell id="1" parent="0"/>
                <mxCell id="9" style="edgeStyle=none;html=1;entryX=-0.013;entryY=0.31;entryDx=0;entryDy=0;entryPerimeter=0;" edge="1" parent="1" source="2" target="5">
                    <mxGeometry relative="1" as="geometry"/>
                </mxCell>
                <mxCell id="2" value="Müşteri Kayıt" style="rounded=1;whiteSpace=wrap;html=1;" vertex="1" parent="1">
                    <mxGeometry x="340" y="320" width="190" height="100" as="geometry"/>
                </mxCell>
                <mxCell id="3" value="Reklam/Mail Yönetimi" style="rounded=1;whiteSpace=wrap;html=1;" vertex="1" parent="1">
                    <mxGeometry x="340" y="450" width="190" height="100" as="geometry"/>
                </mxCell>
                <mxCell id="4" value="Sipariş" style="rounded=1;whiteSpace=wrap;html=1;" vertex="1" parent="1">
                    <mxGeometry x="340" y="645" width="190" height="100" as="geometry"/>
                </mxCell>
                <mxCell id="11" style="edgeStyle=none;html=1;entryX=1.003;entryY=0.846;entryDx=0;entryDy=0;entryPerimeter=0;" edge="1" parent="1" source="5" target="3">
                    <mxGeometry relative="1" as="geometry"/>
                </mxCell>
                <mxCell id="12" style="edgeStyle=none;html=1;exitX=0;exitY=0;exitDx=0;exitDy=247.5;exitPerimeter=0;" edge="1" parent="1" source="5" target="4">
                    <mxGeometry relative="1" as="geometry"/>
                </mxCell>
                <mxCell id="5" value="Message Queue" style="shape=cylinder3;whiteSpace=wrap;html=1;boundedLbl=1;backgroundOutline=1;size=15;" vertex="1" parent="1">
                    <mxGeometry x="600" y="325" width="80" height="340" as="geometry"/>
                </mxCell>
                <mxCell id="15" value="RabbitMQ, Azure Service Bus, Kafka" style="text;html=1;align=center;verticalAlign=middle;resizable=0;points=[];autosize=1;strokeColor=none;fillColor=none;" vertex="1" parent="1">
                    <mxGeometry x="680" y="470" width="220" height="30" as="geometry"/>
                </mxCell>
                <mxCell id="21" style="edgeStyle=none;html=1;" edge="1" parent="1" source="16" target="20">
                    <mxGeometry relative="1" as="geometry"/>
                </mxCell>
                <mxCell id="16" value="" style="aspect=fixed;perimeter=ellipsePerimeter;html=1;align=center;shadow=0;dashed=0;spacingTop=3;image;image=img/lib/active_directory/laptop_client.svg;" vertex="1" parent="1">
                    <mxGeometry x="15.5" y="400" width="45" height="50" as="geometry"/>
                </mxCell>
                <mxCell id="22" style="edgeStyle=none;html=1;" edge="1" parent="1" source="17" target="20">
                    <mxGeometry relative="1" as="geometry"/>
                </mxCell>
                <mxCell id="17" value="" style="outlineConnect=0;dashed=0;verticalLabelPosition=bottom;verticalAlign=top;align=center;html=1;shape=mxgraph.aws3.mobile_client;fillColor=#D2D3D3;gradientColor=none;" vertex="1" parent="1">
                    <mxGeometry x="20" y="550" width="40.5" height="63" as="geometry"/>
                </mxCell>
                <mxCell id="18" style="edgeStyle=none;html=1;exitX=1;exitY=1;exitDx=0;exitDy=0;entryX=0;entryY=0.75;entryDx=0;entryDy=0;" edge="1" parent="1" source="16" target="16">
                    <mxGeometry relative="1" as="geometry"/>
                </mxCell>
                <mxCell id="23" style="edgeStyle=none;html=1;entryX=0;entryY=0.5;entryDx=0;entryDy=0;" edge="1" parent="1" source="20" target="2">
                    <mxGeometry relative="1" as="geometry"/>
                </mxCell>
                <mxCell id="24" style="edgeStyle=none;html=1;entryX=0;entryY=0.5;entryDx=0;entryDy=0;" edge="1" parent="1" source="20" target="3">
                    <mxGeometry relative="1" as="geometry"/>
                </mxCell>
                <mxCell id="25" style="edgeStyle=none;html=1;entryX=0.006;entryY=0.377;entryDx=0;entryDy=0;entryPerimeter=0;" edge="1" parent="1" source="20" target="4">
                    <mxGeometry relative="1" as="geometry"/>
                </mxCell>
                <mxCell id="20" value="API Gateway" style="rounded=1;whiteSpace=wrap;html=1;" vertex="1" parent="1">
                    <mxGeometry x="130" y="245" width="120" height="500" as="geometry"/>
                </mxCell>
                <mxCell id="28" value="" style="edgeStyle=none;html=1;" edge="1" parent="1" source="27" target="3">
                    <mxGeometry relative="1" as="geometry"/>
                </mxCell>
                <mxCell id="27" value="" style="shape=cylinder3;whiteSpace=wrap;html=1;boundedLbl=1;backgroundOutline=1;size=15;lid=0;" vertex="1" parent="1">
                    <mxGeometry x="405" y="590" width="60" height="40" as="geometry"/>
                </mxCell>
            </root>
        </mxGraphModel>
    </diagram>
</mxfile>